<?xml version="1.0" encoding="utf-8"?>
<!-- Generator: Adobe Illustrator 24.2.1, SVG Export Plug-In . SVG Version: 6.00 Build 0)  -->
<svg version="1.1" id="Layer_1" xmlns="http://www.w3.org/2000/svg" xmlns:xlink="http://www.w3.org/1999/xlink" x="0px" y="0px"
	 viewBox="0 0 269 306" style="enable-background:new 0 0 269 306;" xml:space="preserve">
<style type="text/css">
	.st0{fill:#FFFFFF;}
</style>
<g id="Layer_5">
	<path class="st0" d="M73.9,108.4L56,163.5c-0.4,1.2-0.9,2.9-1.5,5.2c-0.3,1-0.6,2.3-1,3.9c-0.2-0.8-0.5-1.6-0.7-2.4
		c-0.7-2.6-1.4-4.9-2-6.6l-17.9-55.1H10.2L43,195.9h20.7l32.6-87.5L73.9,108.4z"/>
	<path class="st0" d="M144.9,150.8c2.9-1.2,5.6-3,7.7-5.3c3.5-3.9,5.3-9,5.2-14.2c0-7.5-2.8-13.5-8.2-17.8s-12.7-6.3-22-6.3
		c-8.8,0-16,2.2-21.5,6.5s-8.9,10.5-9.8,18.2l-0.2,2l20.8,1.5l0.2-1.8c0.1-2.6,1.2-5.1,3.1-6.8c2-1.7,4.6-2.5,7.2-2.4
		c3.2,0,5.6,0.8,7.2,2.4c1.6,1.6,2.4,3.8,2.4,6.8s-1,5.4-3,7s-5.4,2.5-9.8,2.5h-7.4v17.2h7.8c4.9,0,8.7,0.9,11.1,2.6
		c2.2,1.6,3.5,4.3,3.3,7c0,3.6-0.9,6.1-2.7,7.7s-4.6,2.5-8.2,2.5c-7.2,0-11.1-3.3-12-10.4l-0.2-1.8l-21,1.8l0.2,1.9
		c1,8.3,4.4,14.7,10.2,19.2s13.4,6.6,22.9,6.6c10.1,0,18-2.3,23.5-6.9s8.5-11.3,8.5-19.7c0.2-5.5-1.9-10.8-5.8-14.6
		C151.6,153.7,148.4,151.8,144.9,150.8z"/>
	<path class="st0" d="M231.9,164l-0.7,1.7c-3.9,9.9-10.6,14.7-20.6,14.7c-4.4,0.1-8.8-1-12.6-3.2c-3.5-2.2-6.2-5.4-7.7-9.2
		c-1.8-4.1-2.7-9.4-2.7-15.5c0-9,2-15.8,5.8-20.4s9.3-6.7,16.8-6.7c4.5-0.1,8.8,1.1,12.6,3.4c3.4,2,5.8,5.2,7,9l0.6,1.7l19.4-5.2
		l-0.6-1.9c-2.3-7.6-7.3-14.1-14-18.4c-6.6-4.1-15.1-6.2-25.4-6.2c-9.4,0-17.4,1.8-23.9,5.2c-6.5,3.4-11.7,8.7-15,15.3
		c-3.3,6.6-5,14.7-5,24.1s1.8,17.5,5.2,24.3c3.4,6.7,8.8,12.2,15.4,15.7c6.6,3.6,14.8,5.4,24.1,5.4s17.5-2.1,24.2-6.2
		s12-10.5,15.5-18.9l0.7-1.8L231.9,164z"/>
	<path class="st0" d="M231.9,68.8l-0.7,1.7c-3.9,9.9-10.6,14.7-20.6,14.7c-4.4,0.1-8.8-0.9-12.6-3.1c-3.5-2.2-6.2-5.4-7.7-9.2
		c-1.8-4.1-2.7-9.3-2.7-15.5c0-9,2-15.8,5.8-20.4s9.3-6.7,16.8-6.7c4.5-0.1,8.9,1.1,12.7,3.4c3.4,2,5.8,5.2,7,9l0.6,1.7l19.4-5.2
		l-0.6-1.9c-2.3-7.6-7.3-14.1-14-18.4c-6.6-4.1-15.1-6.2-25.4-6.2c-9.4,0-17.4,1.8-23.9,5.2s-11.7,8.7-15,15.3s-5,14.7-5,24.1
		s1.8,17.5,5.2,24.3c3.4,6.7,8.8,12.2,15.4,15.7c6.6,3.6,14.8,5.4,24.1,5.4s17.5-2.1,24.2-6.2s12-10.5,15.5-18.9l0.7-1.8L231.9,68.8
		z"/>
	<path class="st0" d="M231.9,259.1l-0.7,1.7c-3.9,9.9-10.6,14.7-20.6,14.7c-4.4,0.1-8.8-1-12.6-3.1c-3.5-2.2-6.2-5.4-7.7-9.2
		c-1.8-4.1-2.7-9.4-2.7-15.5c0-9,2-15.8,5.8-20.4s9.3-6.7,16.8-6.7c4.5-0.1,8.9,1.1,12.7,3.4c3.4,2,5.8,5.2,7,9l0.6,1.7l19.4-5.2
		l-0.6-1.9c-2.3-7.6-7.3-14.1-14-18.4c-6.6-4.1-15.1-6.2-25.4-6.2c-9.4,0-17.4,1.7-23.9,5.2c-6.5,3.4-11.7,8.7-15,15.3
		s-5,14.7-5,24.1c0,9.4,1.8,17.5,5.2,24.3c3.4,6.7,8.8,12.2,15.4,15.7c6.6,3.6,14.8,5.4,24.1,5.4s17.5-2.1,24.2-6.2
		s12-10.5,15.5-18.9l0.7-1.8L231.9,259.1z"/>
</g>
</svg>
