<?xml version="1.0" encoding="utf-8"?>
<!-- Generator: Adobe Illustrator 24.2.1, SVG Export Plug-In . SVG Version: 6.00 Build 0)  -->
<svg version="1.1" id="Layer_1" xmlns="http://www.w3.org/2000/svg" xmlns:xlink="http://www.w3.org/1999/xlink" x="0px" y="0px"
	 viewBox="0 0 319.4 320.5" style="enable-background:new 0 0 319.4 320.5;" xml:space="preserve">
<style type="text/css">
	.st0{fill:#FFFFFF;}
</style>
<g id="Layer_5">
	<rect x="-0.3" y="0.2" width="320" height="320"/>
	<path class="st0" d="M215.7,168.9c-5.3-5.3-12.2-9.3-20.5-11.8c7-2.8,12.8-6.7,17.3-11.7c7.1-7.8,10.7-17.8,10.7-29.9
		c0-16-5.8-28.6-17.1-37.7C194.9,69,179.4,64.5,160,64.5c-18.3,0-33.5,4.7-45,13.9c-11.6,9.2-18.5,22.2-20.5,38.5l-0.5,3.7l42.8,3
		l0.3-3.4c0.6-6.6,2.8-11.5,6.7-15c3.8-3.5,8.9-5.2,15.4-5.2c6.9,0,12.1,1.8,15.5,5.2c3.5,3.6,5.2,8.4,5.2,14.9
		c0,6.8-2.1,11.8-6.4,15.3c-4.5,3.7-11.6,5.5-20.9,5.5h-15.2v35.8h16c10.5,0,18.4,1.9,23.5,5.6c4.9,3.7,7.2,8.7,7.2,15.5
		c0,7.6-2,13.3-5.9,16.8c-4,3.6-9.9,5.4-17.6,5.4c-15.5,0-23.8-7.2-25.8-22.8l-0.4-3.3l-43.2,3.8l0.4,3.6c2,17.5,9.1,31.1,21.2,40.7
		c11.8,9.3,28,14.1,48,14.1c21,0,37.6-4.9,49.2-14.5c11.8-9.8,17.8-23.7,17.8-41.5C227.8,187.5,223.7,177.1,215.7,168.9z"/>
</g>
</svg>
