<?xml version="1.0" encoding="utf-8"?>
<!-- Generator: Adobe Illustrator 24.2.1, SVG Export Plug-In . SVG Version: 6.00 Build 0)  -->
<svg version="1.1" id="Layer_1" xmlns="http://www.w3.org/2000/svg" xmlns:xlink="http://www.w3.org/1999/xlink" x="0px" y="0px"
	 viewBox="0 0 563 306" style="enable-background:new 0 0 563 306;" xml:space="preserve">
<style type="text/css">
	.st0{fill:#FFFFFF;}
</style>
<g id="Layer_5">
	<path class="st0" d="M80.9,108.4L63,163.5c-0.4,1.2-0.9,2.9-1.5,5.2c-0.3,1-0.6,2.3-1,3.9c-0.2-0.8-0.5-1.6-0.7-2.4
		c-0.7-2.6-1.4-4.9-2-6.6l-17.9-55.1H17.2L50,195.9h20.7l32.6-87.5L80.9,108.4z"/>
	<path class="st0" d="M151.9,150.8c2.9-1.2,5.6-3,7.7-5.3c3.5-3.9,5.3-9,5.2-14.2c0-7.5-2.8-13.5-8.2-17.8s-12.7-6.3-22-6.3
		c-8.8,0-16,2.2-21.5,6.5s-8.9,10.5-9.8,18.2l-0.2,2l20.8,1.5l0.2-1.8c0.1-2.6,1.2-5.1,3.1-6.8c2-1.7,4.6-2.5,7.2-2.4
		c3.2,0,5.6,0.8,7.2,2.4s2.4,3.8,2.4,6.8s-1,5.4-3,7s-5.4,2.5-9.8,2.5h-7.4v17.2h7.8c4.9,0,8.7,0.9,11.1,2.6c2.2,1.6,3.5,4.3,3.3,7
		c0,3.6-0.9,6.1-2.7,7.7s-4.6,2.5-8.2,2.5c-7.2,0-11.1-3.3-12-10.4l-0.2-1.8l-21,1.8l0.2,1.9c1,8.3,4.4,14.7,10.2,19.2
		s13.4,6.6,22.9,6.6c10.1,0,18-2.3,23.5-6.9s8.5-11.3,8.5-19.7c0.2-5.5-1.9-10.8-5.8-14.6C158.6,153.7,155.4,151.8,151.9,150.8z"/>
	<path class="st0" d="M238.9,164l-0.7,1.7c-3.9,9.9-10.6,14.7-20.6,14.7c-4.4,0.1-8.8-1-12.6-3.2c-3.5-2.2-6.2-5.4-7.7-9.2
		c-1.8-4.1-2.7-9.4-2.7-15.5c0-9,2-15.8,5.8-20.4s9.3-6.7,16.8-6.7c4.5-0.1,8.8,1.1,12.6,3.4c3.4,2,5.8,5.2,7,9l0.6,1.7l19.4-5.2
		l-0.6-1.9c-2.3-7.6-7.3-14.1-14-18.4c-6.6-4.1-15.1-6.2-25.4-6.2c-9.4,0-17.4,1.8-23.9,5.2c-6.5,3.4-11.7,8.7-15,15.3
		c-3.3,6.6-5,14.7-5,24.1s1.8,17.5,5.2,24.3c3.4,6.7,8.8,12.2,15.4,15.7c6.6,3.6,14.8,5.4,24.1,5.4s17.5-2.1,24.2-6.2
		s12-10.5,15.5-18.9l0.7-1.8L238.9,164z"/>
	<path class="st0" d="M238.9,68.8l-0.7,1.7c-3.9,9.9-10.6,14.7-20.6,14.7c-4.4,0.1-8.8-0.9-12.6-3.1c-3.5-2.2-6.2-5.4-7.7-9.2
		c-1.8-4.1-2.7-9.3-2.7-15.5c0-9,2-15.8,5.8-20.4s9.3-6.7,16.8-6.7c4.5-0.1,8.9,1.1,12.7,3.4c3.4,2,5.8,5.2,7,9l0.6,1.7l19.4-5.2
		l-0.6-1.9c-2.3-7.6-7.3-14.1-14-18.4c-6.6-4.1-15.1-6.2-25.4-6.2c-9.4,0-17.4,1.8-23.9,5.2c-6.5,3.4-11.7,8.7-15,15.3
		c-3.3,6.6-5,14.7-5,24.1s1.8,17.5,5.2,24.3c3.4,6.7,8.8,12.2,15.4,15.7c6.6,3.6,14.8,5.4,24.1,5.4s17.5-2.1,24.2-6.2
		s12-10.5,15.5-18.9l0.7-1.8L238.9,68.8z"/>
	<path class="st0" d="M238.9,259.1l-0.7,1.7c-3.9,9.9-10.6,14.7-20.6,14.7c-4.4,0.1-8.8-1-12.6-3.1c-3.5-2.2-6.2-5.4-7.7-9.2
		c-1.8-4.1-2.7-9.4-2.7-15.5c0-9,2-15.8,5.8-20.4s9.3-6.7,16.8-6.7c4.5-0.1,8.9,1.1,12.7,3.4c3.4,2,5.8,5.2,7,9l0.6,1.7l19.4-5.2
		l-0.6-1.9c-2.3-7.6-7.3-14.1-14-18.4c-6.6-4.1-15.1-6.2-25.4-6.2c-9.4,0-17.4,1.7-23.9,5.2c-6.5,3.4-11.7,8.7-15,15.3
		c-3.3,6.6-5,14.7-5,24.1c0,9.4,1.8,17.5,5.2,24.3c3.4,6.7,8.8,12.2,15.4,15.7c6.6,3.6,14.8,5.4,24.1,5.4s17.5-2.1,24.2-6.2
		s12-10.5,15.5-18.9l0.7-1.8L238.9,259.1z"/>
	<path class="st0" d="M316.5,92.7l-10.2,27.7h-5.9l-10.2-27.7h6l5.8,17.8c0.2,0.6,0.4,1.3,0.6,2.2s0.5,1.9,0.8,3
		c0.4-1.6,0.7-2.8,0.9-3.6s0.4-1.3,0.5-1.7l5.7-17.8L316.5,92.7z"/>
	<path class="st0" d="M322.8,113.3l-2.5,7.1h-5.8l10.1-27.7h6.8l10,27.7h-5.7l-2.5-7.1H322.8z M328.1,96.9c-0.1,0.5-0.3,1.2-0.5,1.9
		l-0.5,1.6l-2.9,8.5h8l-3-8.7c-0.2-0.5-0.4-1.1-0.5-1.6S328.2,97.5,328.1,96.9L328.1,96.9z"/>
	<path class="st0" d="M350.9,109.8v10.5h-5.8V92.7h13.8c3.3,0,5.9,0.7,7.6,2.1c1.8,1.5,2.8,3.8,2.7,6.1c0,1.8-0.5,3.6-1.6,5
		c-1.1,1.4-2.7,2.4-4.5,2.8l7.5,11.6h-6.5l-6.4-10.5L350.9,109.8z M363.4,101.2c0.1-1.1-0.4-2.3-1.3-3c-1.1-0.7-2.5-1.1-3.8-1h-7.4
		v8.2h7.6c1.3,0.1,2.6-0.3,3.7-1.1C363,103.4,363.4,102.3,363.4,101.2L363.4,101.2z"/>
	<path class="st0" d="M379.7,92.7v27.7h-5.8V92.7H379.7z"/>
	<path class="st0" d="M391.4,113.3l-2.4,7.1h-5.8l10.1-27.7h6.8l10,27.7h-5.7l-2.4-7.1H391.4z M396.7,96.9c-0.1,0.5-0.3,1.2-0.5,1.9
		s-0.4,1.2-0.5,1.6l-2.9,8.5h7.9l-3-8.7c-0.2-0.5-0.4-1.1-0.5-1.6S396.9,97.5,396.7,96.9L396.7,96.9z"/>
	<path class="st0" d="M418.8,104v16.3h-5.1V92.7h6.6l12.2,21.5c-0.2-1.8-0.3-3.6-0.4-5.4V92.7h5.1v27.7h-6.8l-12-21.3
		c0.1,1,0.2,2,0.3,2.8S418.8,103.4,418.8,104z"/>
	<path class="st0" d="M455,97.2v23.2h-5.8V97.2h-8.9v-4.5h23.7v4.5H455z"/>
	<path class="st0" d="M305.6,148.4c3.5,0,5.9-1.8,7.3-5.2l5,1.9c-0.9,2.5-2.6,4.6-4.8,6c-2.3,1.4-4.9,2-7.5,1.9
		c-2.6,0.1-5.2-0.5-7.6-1.7c-2.1-1.1-3.7-2.8-4.8-4.9c-1.1-2.4-1.7-5.1-1.6-7.7c-0.1-2.7,0.5-5.3,1.6-7.7c1-2,2.6-3.7,4.6-4.8
		c2.3-1.2,4.9-1.7,7.5-1.6c2.8-0.1,5.5,0.6,7.9,2c2.1,1.3,3.6,3.4,4.3,5.7l-5.1,1.4c-0.4-1.4-1.3-2.6-2.5-3.3
		c-1.3-0.8-2.9-1.3-4.5-1.2c-2.3-0.2-4.5,0.7-6,2.4c-1.4,1.6-2,4-2,7.1c0,1.8,0.3,3.7,0.9,5.4c0.5,1.4,1.5,2.5,2.7,3.3
		C302.4,148.1,304,148.5,305.6,148.4z"/>
	<path class="st0" d="M342.1,148.1v4.5h-20.6v-27.6h5.8v23.2H342.1z"/>
	<path class="st0" d="M357.3,153c-2.2,0.1-4.4-0.4-6.4-1.2c-1.7-0.8-3.1-2-4-3.6c-0.9-1.8-1.4-3.8-1.4-5.9v-17.3h5.8v16.8
		c-0.1,1.8,0.4,3.6,1.6,5c1.2,1.2,2.9,1.8,4.6,1.7c1.8,0.1,3.5-0.5,4.8-1.8c1.2-1.4,1.8-3.2,1.7-5.1v-16.7h5.8v17
		c0.1,2.1-0.4,4.2-1.5,6c-1,1.7-2.5,3-4.2,3.8C361.9,152.6,359.6,153.1,357.3,153z"/>
	<path class="st0" d="M397.2,144.6c0.1,2.4-1,4.8-3,6.2c-2,1.4-4.9,2.1-8.8,2.1c-7,0-11.1-2.5-12.2-7.6l5.6-0.9
		c0.3,1.3,1.1,2.5,2.2,3.2c2.9,1.3,6.2,1.3,9.1,0.1c1-0.6,1.6-1.6,1.5-2.8c0-0.7-0.2-1.4-0.7-1.9c-0.6-0.6-1.2-1-2-1.3
		c-0.6-0.2-1.2-0.4-1.9-0.6c-0.8-0.2-1.8-0.4-3-0.7c-1.4-0.3-2.5-0.6-3.3-0.8c-0.6-0.2-1.3-0.4-1.9-0.7c-0.5-0.2-0.9-0.5-1.4-0.7
		c-1-0.6-1.7-1.4-2.3-2.4c-0.6-1.1-0.9-2.4-0.8-3.7c-0.1-2.3,0.9-4.4,2.8-5.7c1.9-1.3,4.6-2,8.2-2c3.4,0,6,0.5,7.7,1.6
		c1.8,1.2,3,3.2,3.3,5.3l-5.6,0.8c-0.2-1.1-0.9-2.1-1.8-2.7c-1.1-0.7-2.5-1-3.8-0.9c-1.4-0.1-2.8,0.2-4,0.8
		c-0.9,0.5-1.4,1.5-1.3,2.5c0,0.6,0.2,1.3,0.6,1.8c0.5,0.5,1,0.9,1.6,1.2c1.5,0.5,3,0.9,4.5,1.2c1.3,0.3,2.5,0.6,3.4,0.8
		c0.8,0.2,1.5,0.4,2.3,0.7c0.5,0.2,1,0.5,1.5,0.8c0.4,0.3,0.8,0.5,1.2,0.9c0.7,0.6,1.2,1.4,1.5,2.3
		C397,142.5,397.2,143.5,397.2,144.6z"/>
	<path class="st0" d="M413.7,129.4v23.2h-5.8v-23.2H399v-4.5h23.7v4.5H413.7z"/>
	<path class="st0" d="M448.1,148.1v4.5h-22.5v-27.6h21.7v4.5h-15.9v7h14.8v4.5h-14.8v7.3L448.1,148.1z"/>
	<path class="st0" d="M458,142.1v10.5h-5.8v-27.6H466c3.3,0,5.8,0.7,7.6,2.1c1.8,1.5,2.8,3.8,2.7,6.1c0,1.8-0.5,3.6-1.6,5
		c-1.1,1.4-2.7,2.4-4.5,2.8l7.5,11.6h-6.5l-6.4-10.5L458,142.1z M470.5,133.4c0.1-1.1-0.4-2.3-1.3-3c-1.1-0.7-2.5-1.1-3.8-1H458v8.2
		h7.6c1.3,0.1,2.6-0.3,3.7-1.1C470.1,135.7,470.6,134.5,470.5,133.4L470.5,133.4z"/>
	<path class="st0" d="M305.6,181.2c3.5,0,5.9-1.8,7.3-5.2l5,1.9c-0.9,2.5-2.6,4.6-4.8,6c-2.3,1.4-4.9,2.1-7.5,2
		c-2.6,0.1-5.2-0.5-7.6-1.7c-2.1-1.1-3.7-2.8-4.8-4.9c-2.2-4.9-2.2-10.5-0.1-15.4c1-2,2.6-3.7,4.6-4.8c2.3-1.2,4.9-1.7,7.5-1.6
		c2.8-0.1,5.5,0.6,7.9,2c2.1,1.3,3.6,3.4,4.3,5.7l-5.1,1.4c-0.4-1.4-1.3-2.6-2.5-3.3c-1.3-0.8-2.9-1.3-4.5-1.2
		c-2.3-0.2-4.5,0.7-6,2.4c-1.4,1.6-2,4-2,7.1c0,1.8,0.3,3.7,0.9,5.4c0.5,1.4,1.5,2.5,2.7,3.3C302.4,181,304,181.3,305.6,181.2z"/>
	<path class="st0" d="M328,178.3l-2.5,7.1h-5.8l10.1-27.6h6.8l10,27.6H341l-2.5-7.1H328z M333.3,162c-0.1,0.5-0.3,1.2-0.5,1.9
		l-0.5,1.6l-2.9,8.6h8l-3-8.7c-0.2-0.5-0.4-1.1-0.5-1.6S333.5,162.6,333.3,162z"/>
	<path class="st0" d="M370.9,180.9v4.5h-20.6v-27.6h5.8v23.2H370.9z"/>
	<path class="st0" d="M395.2,180.9v4.5h-20.6v-27.6h5.8v23.2H395.2z"/>
	<path class="st0" d="M305.6,213.5c3.5,0,5.9-1.8,7.3-5.3l5,1.9c-0.9,2.5-2.6,4.6-4.8,6c-2.3,1.4-4.9,2.1-7.5,2
		c-2.6,0.1-5.2-0.5-7.6-1.7c-2.1-1.1-3.7-2.8-4.8-4.9c-2.2-4.9-2.2-10.5-0.1-15.4c1-2,2.6-3.7,4.6-4.8c2.3-1.2,4.9-1.7,7.5-1.6
		c2.8-0.1,5.5,0.6,7.9,2c2.1,1.3,3.6,3.4,4.3,5.7l-5.1,1.4c-0.4-1.4-1.3-2.5-2.5-3.3c-1.3-0.8-2.9-1.3-4.5-1.2
		c-2.3-0.2-4.5,0.7-6,2.4c-1.4,1.6-2,4-2,7.1c0,1.8,0.3,3.6,0.9,5.4c0.5,1.4,1.5,2.5,2.7,3.3C302.4,213.2,304,213.6,305.6,213.5z"/>
	<path class="st0" d="M348.4,203.7c0.1,2.6-0.5,5.2-1.7,7.5c-1.1,2.1-2.8,3.8-4.9,5c-2.3,1.2-4.8,1.8-7.4,1.8
		c-2.6,0.1-5.2-0.5-7.5-1.7c-2.1-1.1-3.7-2.9-4.8-4.9c-1.2-2.4-1.7-5-1.7-7.6c-0.1-2.6,0.5-5.2,1.6-7.6c1.1-2.1,2.7-3.7,4.8-4.8
		c2.3-1.2,4.9-1.8,7.5-1.7c2.6-0.1,5.2,0.5,7.5,1.7c2,1.1,3.7,2.8,4.8,4.9C347.8,198.5,348.4,201.1,348.4,203.7z M342.4,203.7
		c0.1-2.5-0.6-5-2.1-7c-1.5-1.7-3.7-2.7-5.9-2.5c-2.3-0.1-4.5,0.8-6,2.5c-1.5,2-2.3,4.5-2.1,7c0,1.8,0.3,3.6,1,5.2
		c1.2,2.9,4,4.7,7.1,4.6c2.3,0.1,4.5-0.8,6-2.6C341.7,209.2,342.4,206.8,342.4,203.7z"/>
	<path class="st0" d="M358.3,207.1v10.5h-5.8V190h13.8c3.3,0,5.8,0.7,7.6,2.1c1.8,1.5,2.8,3.8,2.7,6.1c0,1.8-0.5,3.6-1.6,5
		c-1.1,1.4-2.7,2.4-4.5,2.8l7.4,11.6h-6.5l-6.4-10.5H358.3z M370.8,198.5c0.1-1.1-0.4-2.3-1.3-3c-1.1-0.7-2.5-1.1-3.8-1h-7.4v8.2
		h7.6c1.3,0.1,2.6-0.3,3.7-1.1C370.4,200.7,370.9,199.6,370.8,198.5z"/>
	<path class="st0" d="M387.1,207.1v10.5h-5.8V190h13.8c3.3,0,5.8,0.7,7.6,2.1c1.8,1.5,2.8,3.8,2.7,6.1c0,1.8-0.5,3.6-1.6,5
		c-1.1,1.4-2.7,2.4-4.5,2.8l7.5,11.6h-6.5l-6.4-10.5L387.1,207.1z M399.6,198.5c0.1-1.1-0.4-2.3-1.3-3c-1.1-0.7-2.5-1.1-3.8-1h-7.4
		v8.2h7.6c1.3,0.1,2.6-0.3,3.7-1.1C399.2,200.7,399.7,199.6,399.6,198.5z"/>
	<path class="st0" d="M432.7,213.1v4.5h-22.5V190h21.7v4.5H416v7h14.7v4.5H416v7.3L432.7,213.1z"/>
	<path class="st0" d="M449.7,213.5c3.5,0,5.9-1.8,7.3-5.3l5,1.9c-0.9,2.5-2.6,4.6-4.8,6c-2.3,1.4-4.9,2.1-7.5,2
		c-2.6,0.1-5.2-0.5-7.5-1.7c-2.1-1.1-3.7-2.8-4.8-4.9c-1.1-2.4-1.7-5.1-1.6-7.7c-0.1-2.7,0.5-5.3,1.6-7.7c1-2,2.6-3.7,4.6-4.8
		c2.3-1.2,4.9-1.7,7.5-1.6c2.8-0.1,5.5,0.6,7.9,2c2.1,1.3,3.6,3.4,4.3,5.7l-5.1,1.4c-0.4-1.4-1.3-2.5-2.5-3.3
		c-1.3-0.8-2.9-1.3-4.5-1.2c-2.3-0.2-4.5,0.7-6,2.4c-1.4,1.6-2,4-2,7.1c-0.1,1.8,0.3,3.6,0.9,5.4c0.5,1.4,1.5,2.5,2.8,3.3
		C446.6,213.2,448.1,213.6,449.7,213.5z"/>
	<path class="st0" d="M478.1,194.4v23.2h-5.8v-23.2h-8.9V190H487v4.5L478.1,194.4z"/>
	<path class="st0" d="M516.1,203.7c0.1,2.6-0.5,5.2-1.7,7.5c-1.1,2.1-2.8,3.8-4.9,5c-2.3,1.2-4.8,1.9-7.4,1.8
		c-2.6,0.1-5.2-0.5-7.5-1.7c-2.1-1.1-3.7-2.9-4.8-4.9c-1.2-2.4-1.7-5-1.7-7.6c-0.1-2.6,0.5-5.2,1.7-7.6c1.1-2.1,2.7-3.7,4.8-4.8
		c4.7-2.2,10.3-2.2,15,0c2,1.1,3.7,2.8,4.8,4.9C515.6,198.5,516.2,201.1,516.1,203.7z M510.2,203.7c0.1-2.5-0.6-5-2.1-7
		c-3.2-3.3-8.5-3.4-11.8-0.2c-0.1,0.1-0.1,0.1-0.2,0.2c-1.5,2-2.3,4.5-2.1,7c0,1.8,0.3,3.6,1,5.2c1.2,2.9,4,4.7,7.1,4.6
		c2.3,0.1,4.5-0.8,6-2.6C509.5,209.2,510.2,206.8,510.2,203.7L510.2,203.7z"/>
	<path class="st0" d="M526,207.1v10.5h-5.8V190h13.8c3.3,0,5.8,0.7,7.6,2.1c1.8,1.5,2.8,3.8,2.7,6.1c0,1.8-0.5,3.6-1.6,5
		c-1.1,1.4-2.7,2.4-4.5,2.8l7.5,11.6h-6.5l-6.4-10.5L526,207.1z M538.6,198.5c0.1-1.1-0.4-2.3-1.3-3c-1.1-0.7-2.5-1.1-3.8-1H526v8.2
		h7.6c1.3,0.1,2.6-0.3,3.7-1.1C538.2,200.7,538.6,199.6,538.6,198.5z"/>
</g>
</svg>
